inDegrees=yes
name=ik_Xsens_quaternion
DataType=double
version=3
OpenSimVersion=4.4-2022-07-23-0e9fedc
endheader
time	pelvis_tilt	pelvis_list	pelvis_rotation	pelvis_tx	pelvis_ty	pelvis_tz	hip_flexion_r	hip_adduction_r	hip_rotation_r	knee_angle_r	knee_angle_r_beta	ankle_angle_r	subtalar_angle_r	mtp_angle_r	hip_flexion_l	hip_adduction_l	hip_rotation_l	knee_angle_l	knee_angle_l_beta	ankle_angle_l	subtalar_angle_l	mtp_angle_l	lumbar_extension	lumbar_bending	lumbar_rotation	arm_flex_r	arm_add_r	arm_rot_r	elbow_flex_r	pro_sup_r	wrist_flex_r	wrist_dev_r	arm_flex_l	arm_add_l	arm_rot_l	elbow_flex_l	pro_sup_l	wrist_flex_l	wrist_dev_l
15	1.132643313825254	-53.02317704617716	-19.85260093425668	0	0.9399999999999999	0	44.9018493321865	-10.00050796122788	0	60.06383127764824	1.048311617157314	-5.000041228087463	0	0	44.9018493321865	-10.00050796122788	0	60.06383127764824	1.048311617157314	-5.000041228087463	0	0	1.443131961592425	-19.09557051742571	-1.962001883148021	0	-14.14128546156055	0	75.00215052486622	44.99909777476361	0	0	0.2400763156402705	12.64391722367036	1.377602920769528	9.954731664650899	44.99909777476361	0	0
15.01666666666667	1.201397825080748	-53.6811098792065	-19.85104985930093	0	0.9399999999999999	0	44.90208327235014	-10.00050507669516	0	60.06367978165903	1.048308973053499	-5.000040947340072	0	0	44.90208327235014	-10.00050507669516	0	60.06367978165903	1.048308973053499	-5.000040947340072	0	0	1.602566053018273	-19.33426844162883	-1.983892072280391	0	-14.14253441475435	0	75.00214581828375	44.99910214867791	0	0	0.4118486831124708	12.88754458976651	1.436742633349458	9.984823369631895	44.99910214867791	0	0
15.03333333333333	1.271315184519579	-54.35079591498318	-19.85278300310253	0	0.9399999999999999	0	44.90231909874737	-10.00050218647891	0	60.06352688130859	1.048306304438956	-5.00004066658165	0	0	44.90231909874737	-10.00050218647891	0	60.06352688130859	1.048306304438956	-5.00004066658165	0	0	1.757121161362727	-19.5732039782735	-2.00703142193969	0	-14.14379577514749	0	75.0021410737525	44.99910653770235	0	0	0.578274538119085	13.13211642475099	1.495766289262225	10.06590199750905	44.99910653770235	0	0
15.05	1.342121087447999	-55.03096563784501	-19.84887640443717	0	0.9399999999999999	0	44.90255330053617	-10.00049933303879	0	60.06337485674515	1.04830365110978	-5.000040389910851	0	0	44.90255330053617	-10.00049933303879	0	60.06337485674515	1.04830365110978	-5.000040389910851	0	0	1.920172462799882	-19.81423423582141	-2.028635755553905	0	-14.1450507270926	0	75.00213636190625	44.99911087708875	0	0	0.7545694311000574	13.37864599180025	1.55544464633075	10.13549498490369	44.99911087708875	0	0
15.06666666666667	1.425659642689187	-55.71447183014515	-19.84345498296707	0	0.9399999999999999	0	44.90278848496911	-10.00049646149613	0	60.06322257489751	1.048300993290148	-5.000040111355744	0	0	44.90278848496911	-10.00049646149613	0	60.06322257489751	1.048300993290148	-5.000040111355744	0	0	2.10032934559428	-20.05150017063437	-2.051807773242067	0	-14.14630975888254	0	75.00213163029046	44.99911524217222	0	0	0.9486364523159801	13.62064518226796	1.620792736746432	10.1883109444717	44.99911524217222	0	0
15.08333333333333	1.508857037701643	-56.41283911953033	-19.83273320630296	0	0.9399999999999999	0	44.90302149177953	-10.00049363560456	0	60.06307146862982	1.048298355988256	-5.000039837803974	0	0	44.90302149177953	-10.00049363560456	0	60.06307146862982	1.048298355988256	-5.000039837803974	0	0	2.290016645174233	-20.29318453888022	-2.073404119203562	0	-14.14755976331505	0	75.00212694248555	44.99911954483758	0	0	1.153863374480816	13.86698407357918	1.687081929470601	10.22178097775646	44.99911954483758	0	0
15.1	1.579645274929366	-57.12901546642669	-19.81547700317893	0	0.9399999999999999	0	44.90325541940334	-10.00049080996406	0	60.0629197183905	1.048295707446939	-5.000039564639371	0	0	44.90325541940334	-10.00049080996406	0	60.0629197183905	1.048295707446939	-5.000039564639371	0	0	2.476585970097958	-20.54179363324169	-2.092294856632635	0	-14.14881618186067	0	75.002122236155	44.99912385144889	0	0	1.35732547327498	14.12093338605651	1.750035484201298	10.25754827128752	44.99912385144889	0	0
15.11666666666667	1.649100974356276	-57.84169875201113	-19.79116154267449	0	0.9399999999999999	0	44.9034883339179	-10.00048800815988	0	60.06276856883026	1.048293069389451	-5.00003929414339	0	0	44.9034883339179	-10.00048800815988	0	60.06276856883026	1.048293069389451	-5.00003929414339	0	0	2.670111340201115	-20.7860484652196	-2.109631620754407	0	-14.15006868491753	0	75.0021175502068	44.99912812610382	0	0	1.568946706679831	14.37000572263502	1.813478779357813	10.28361316046583	44.99912812610382	0	0
15.13333333333333	1.722042932041162	-58.54396340368204	-19.76226922005023	0	0.9399999999999999	0	44.90372083160373	-10.00048522000694	0	60.06261770594949	1.048290436335462	-5.00003902524705	0	0	44.90372083160373	-10.00048522000694	0	60.06261770594949	1.048290436335462	-5.00003902524705	0	0	2.871644227443899	-21.0215100055282	-2.126848148059472	0	-14.15132002186159	0	75.00211287264466	44.99913238327184	0	4.512513037327705e-36	1.789179127650183	14.60954835023368	1.879094930606	10.31059737196258	44.99913238327184	0	4.512513037327705e-36
15.15	1.802437382664516	-59.23632310447699	-19.72890331710245	0	0.9399999999999999	0	44.90395206541285	-10.00048245746143	0	60.06246763205996	1.048287817051968	-5.000038759151454	0	0	44.90395206541285	-10.00048245746143	0	60.06246763205996	1.048287817051968	-5.000038759151454	0	0	3.086567441521916	-21.24792441988464	-2.144002740954197	0	-14.15256592076276	0	75.00210822051008	44.99913660531548	0	0	2.023781421005201	14.83897379895521	1.948491198027171	10.32860908684896	44.99913660531548	0	0
15.16666666666667	1.899212075602468	-59.92519570886925	-19.69280684151401	0	0.9399999999999999	0	44.90418286150319	-10.00047969697875	0	60.06231814530011	1.048285208015821	-5.000038493205468	0	0	44.90418286150319	-10.00047969697875	0	60.06231814530011	1.048285208015821	-5.000038493205468	0	0	3.327418218662234	-21.4661802867724	-2.16412152687391	0	-14.15380872426802	0	75.00210357718181	44.99914082338388	0	0	2.285121028310007	15.05876740848092	2.027878011015725	10.31101861370985	44.99914082338388	0	0
15.18333333333333	2.003121110502021	-60.61365894754235	-19.65331072971496	0	0.9399999999999999	0	44.90441466220737	-10.00047692465607	0	60.06216823427564	1.048282591574859	-5.000038226168028	0	0	44.90441466220737	-10.00047692465607	0	60.06216823427564	1.048282591574859	-5.000038226168028	0	0	3.582915641314669	-21.67807945205845	-2.185626403780802	0	-14.15505669159222	0	75.00209891364204	44.99914505993701	0	0	2.561829248255815	15.27141646465292	2.112770631147191	10.28553777439462	44.99914505993701	0	0
15.2	2.109972396558738	-61.30183296876771	-19.60489258505814	0	0.9399999999999999	0	44.90464406406296	-10.00047418888351	0	60.06201990521788	1.048280002744425	-5.000037962911311	0	0	44.90464406406296	-10.00047418888351	0	60.06201990521788	1.048280002744425	-5.000037962911311	0	0	3.859588650885849	-21.88673511851683	-2.206289637764139	0	-14.15629270545395	0	75.002094298364	44.99914924371221	0	0	2.861921272034625	15.47948077539275	2.203057986022908	10.20503105011616	44.99914924371221	0	0
15.21666666666667	2.222113850932868	-61.96834238731087	-19.55214787469578	0	0.9399999999999999	0	44.90487205894404	-10.00047148476066	0	60.06187234167881	1.048277427274812	-5.000037703154342	0	0	44.90487205894404	-10.00047148476066	0	60.06187234167881	1.048277427274812	-5.000037703154342	0	0	4.146693729645687	-22.0797977545824	-2.228295303972881	0	-14.15752319677781	0	75.00208971139247	44.99915338463055	0	0	3.172518169145056	15.67086951530752	2.298075379328915	10.13288409475683	44.99915338463055	0	0
15.23333333333333	2.312297939446493	-62.63031704664531	-19.48895108052859	0	0.9399999999999999	0	44.90510225642455	-10.00046876050658	0	60.06172343139138	1.048274828300006	-5.000037441673582	0	0	44.90510225642455	-10.00046876050658	0	60.06172343139138	1.048274828300006	-5.000037441673582	0	0	4.420812529025109	-22.27170142184405	-2.245207148804293	0	-14.15876624268232	0	75.00208508010739	44.99915755881823	0	0	3.471534061671308	15.86136273125876	2.384850276216018	10.07413385206493	44.99915755881823	0	0
15.25	2.377781271171117	-63.29851434985008	-19.4225542165986	0	0.9399999999999999	0	44.90533447345932	-10.00046602267419	0	60.0615731887703	1.048272206071591	-5.000037179219443	0	0	44.90533447345932	-10.00046602267419	0	60.0615731887703	1.048272206071591	-5.000037179219443	0	0	4.670077769021446	-22.47062714331092	-2.257499726371894	0	-14.16002154273281	0	75.00208040819128	44.99916175778229	0	0	3.746259763149299	16.06017383961304	2.459789490525369	10.0459877374176	44.99916175778229	0	0
15.26666666666667	2.448640116406699	-63.9635566952499	-19.36303658988777	0	0.9399999999999999	0	44.9055662149544	-10.00046329929519	0	60.06142326508998	1.048269589409743	-5.000036918438755	0	0	44.9055662149544	-10.00046329929519	0	60.06142326508998	1.048269589409743	-5.000036918438755	0	0	4.920188549970627	-22.66679305995485	-2.272742563770758	0	-14.1612753966929	0	75.00207574584236	44.99916593802881	0	0	4.020974178998817	16.2563218889599	2.537579964223032	10.02609855197546	44.99916593802881	0	0
15.28333333333333	2.536777332132433	-64.6325618088746	-19.31625796823231	0	0.9399999999999999	0	44.90579574102507	-10.00046060923301	0	60.06127482020287	1.048266998557705	-5.000036661090999	0	0	44.90579574102507	-10.00046060923301	0	60.06127482020287	1.048266998557705	-5.000036661090999	0	0	5.183024975440715	-22.8630768815015	-2.294064874211468	0	-14.1625181545104	0	75.00207112806501	44.99917007002207	0	0	4.307354857552043	16.45241894983451	2.624381363252536	9.988637287376379	44.99917007002207	0	0
15.3	2.627721209485738	-65.30332868761704	-19.27901871533598	0	0.9399999999999999	0	44.90602414588195	-10.00045794022183	0	60.0611271267648	1.048264420820927	-5.000036406016577	0	0	44.90602414588195	-10.00045794022183	0	60.0611271267648	1.048264420820927	-5.000036406016577	0	0	5.442294106455692	-23.06204517086868	-2.317794516919382	0	-14.16375583848554	0	75.00206653284508	44.99917417278851	0	0	4.589383819513507	16.65163142456468	2.711861462605123	9.950867585602605	44.99917417278851	0	0
15.31666666666667	2.732614646579254	-65.9676503334604	-19.25398751565717	0	0.9399999999999999	0	44.90624956157227	-10.00045531841241	0	60.0609812761717	1.048261875247862	-5.000036155830044	0	0	44.90624956157227	-10.00045531841241	0	60.0609812761717	1.048261875247862	-5.000036155830044	0	0	5.708719917657975	-23.2572253121108	-2.347358527722741	0	-14.1649790372863	0	75.00206199776325	44.99917820763153	0	0	4.876970732148201	16.84699609574043	2.806698099180526	9.909840102493549	44.99917820763153	0	0
15.33333333333333	2.862477255694655	-66.60953903291652	-19.24399738059765	0	0.9399999999999999	0	44.90647018137033	-10.00045276664144	0	60.06083837789831	1.048259381202496	-5.000035912754718	0	0	44.90647018137033	-10.00045276664144	0	60.06083837789831	1.048259381202496	-5.000035912754718	0	0	5.992326800530137	-23.43871097081233	-2.386924648802985	0	-14.16617827185848	0	75.00205755916869	44.99918214000836	0	0	5.178787853021836	17.02802154676711	2.916332188005278	9.866981863159557	44.99918214000836	0	0
15.35	3.003397879075734	-67.23861963572331	-19.23937604554743	0	0.9399999999999999	0	44.90668789145364	-10.00045025790576	0	60.06069733091203	1.048256919468185	-5.000035674071647	0	0	44.90668789145364	-10.00045025790576	0	60.06069733091203	1.048256919468185	-5.000035674071647	0	0	6.289364996111463	-23.6117195773913	-2.431949413350618	0	-14.16736297773673	0	75.00205317911391	44.9991860096613	0	0	5.492918648515697	17.19994804149601	3.035437471051729	9.810710653021351	44.9991860096613	0	0
15.36666666666667	3.137778148971668	-67.87739028891147	-19.23560479238949	0	0.9399999999999999	0	44.90690550882881	-10.00044775709413	0	60.0605563745706	1.048254459315926	-5.000035436366918	0	0	44.90690550882881	-10.00044775709413	0	60.0605563745706	1.048254459315926	-5.000035436366918	0	0	6.582910271108807	-23.79048337322562	-2.475919168470658	0	-14.16854805658356	0	75.00204880092427	44.9991898698027	0	0	5.804399531225391	17.37790278600562	3.151996532785347	9.745820133232517	44.9991898698027	0	0
